<svg width="48" height="48" viewBox="0 0 48 48" fill="none" xmlns="http://www.w3.org/2000/svg">
<path d="M0 30V39C0 43.9707 10.7452 48 24 48C37.2549 48 48 43.9707 48 39V30C48 34.9707 37.2549 39 24 39C10.7452 39 0 34.9707 0 30Z" fill="#87CAD9"/>
<path d="M0 15V24C0 28.9707 10.7452 33 24 33C37.2549 33 48 28.9707 48 24V15C48 19.9706 37.2549 24 24 24C10.7452 24 0 19.9706 0 15Z" fill="#87CAD9"/>
<path d="M48 9C48 13.9705 37.2549 18 24 18C10.7452 18 0 13.9705 0 9C0 4.02945 10.7452 0 24 0C37.2549 0 48 4.02945 48 9Z" fill="#87CAD9"/>
</svg>
