<svg width="32" height="33" viewBox="0 0 32 33" fill="none" xmlns="http://www.w3.org/2000/svg">
<path d="M11.0764 3.2119C11.5726 3.00996 12.1019 2.92614 12.6241 2.96679C13.1464 3.00743 13.6479 3.17148 14.0907 3.44651C14.5335 3.72154 14.9059 4.10033 15.1799 4.5542C15.4538 5.00806 15.622 5.5251 15.6718 6.06615C16.0259 9.96449 15.1179 13.9288 13.0901 17.337C11.0623 20.7452 8.02962 23.4042 4.46799 24.8969L2.04923 18.2885C4.17674 17.3961 5.98982 15.8101 7.20642 13.7772C8.42302 11.7443 8.97493 9.3785 8.77631 7.04779C8.70325 6.25199 8.88925 5.4425 9.30482 4.74762C9.72038 4.05275 10.3418 3.51225 11.0704 3.2118L11.0764 3.2119Z" fill="#87CAD9"/>
<path d="M11.0475 3.22311C10.1866 3.58439 9.48476 4.28033 9.09646 5.15793C8.70815 6.03553 8.66511 7.02294 8.97681 7.90309L16.0375 27.8247C16.3497 28.7046 16.9909 29.4051 17.8204 29.7721C18.6498 30.1391 19.5995 30.1426 20.4606 29.7817C20.8871 29.6031 21.279 29.3403 21.6139 29.0084C21.9488 28.6765 22.2202 28.2819 22.4125 27.8473C22.6048 27.4127 22.7143 26.9465 22.7347 26.4754C22.7551 26.0043 22.686 25.5375 22.5313 25.1018L15.4706 5.18017C15.3163 4.74426 15.0794 4.34783 14.7736 4.01352C14.4678 3.67923 14.0989 3.41361 13.6882 3.23186C13.2774 3.05012 12.8328 2.95579 12.3797 2.95429C11.9266 2.95279 11.4739 3.04414 11.0475 3.22311Z" fill="#87CAD9"/>
<path d="M20.4281 29.7877C19.932 29.9897 19.4029 30.0737 18.8807 30.0331C18.3586 29.9926 17.8571 29.8287 17.4143 29.5538C16.9716 29.2789 16.5991 28.9003 16.3252 28.4465C16.0512 27.9928 15.883 27.4758 15.8332 26.9349C15.4795 23.0365 16.3876 19.0722 18.4152 15.6639C20.4428 12.2556 23.4751 9.59614 27.0365 8.10271L29.4553 14.7136C27.3278 15.606 25.5147 17.192 24.2981 19.2249C23.0815 21.2578 22.5296 23.6236 22.7282 25.9543C22.8001 26.7504 22.6128 27.5598 22.1962 28.2542C21.7795 28.9486 21.1573 29.4882 20.4281 29.7877Z" fill="#87CAD9"/>
</svg>
